# AST/ASF file generated using VICON BodyLanguage
# -----------------------------------------------
:version 1.10
:name VICON
:units
  mass 1.0
  length 0.45
  angle deg
:documentation
   .ast/.asf automatically generated from VICON data using
   VICON BodyBuilder and BodyLanguage model FoxedUp or BRILLIANT.MOD
:root
   order TX TY TZ RX RY RZ
   axis XYZ
   position 0 0 0  
   orientation 0 0 0 
:bonedata
  begin
     id 1 
     name lhipjoint
     direction 0.62366 -0.717238 0.310833 
     length 2.53602 
     axis 0 0 0  XYZ
  end
  begin
     id 2 
     name lfemur
     direction 0.34202 -0.939693 0  
     length 7.40817  
     axis 0 0 20  XYZ
    dof rx ry rz
    limits (-160.0 20.0)
           (-70.0 70.0)
           (-60.0 70.0)
  end
  begin
     id 3 
     name ltibia
     direction 0.34202 -0.939693 0   
     length 7.7045   
     axis 0 0 20   XYZ
    dof rx
    limits (-10.0 170.0)
  end
  begin
     id 4 
     name lfoot
     direction 0.0673888 -0.185149 0.980397   
     length 2.09456   
     axis -90 7.62852e-016 20   XYZ
    dof rx rz
    limits (-45.0 90.0)
           (-70.0 20.0)
  end
  begin
     id 5 
     name ltoes
     direction 1.53575e-011 -4.21994e-011 1   
     length 1.05543   
     axis -90 7.62852e-016 20   XYZ
    dof rx
    limits (-90.0 20.0)
  end
  begin
     id 6 
     name rhipjoint
     direction -0.489018 -0.800347 0.346851   
     length 2.27268  
     axis 0 0 0  XYZ 
  end
  begin
     id 7 
     name rfemur
     direction -0.34202 -0.939693 0   
     length 7.55487   
     axis 0 0 -20   XYZ
    dof rx ry rz
    limits (-160.0 20.0)
           (-70.0 70.0)
           (-70.0 60.0)
  end
  begin
     id 8 
     name rtibia
     direction -0.34202 -0.939693 0   
     length 7.78969   
     axis 0 0 -20   XYZ
    dof rx
    limits (-10.0 170.0)
 end
 begin
     id 9 
     name rfoot
     direction -0.0859318 -0.236096 0.967923   
     length 2.19143  
     axis -90 -7.62852e-016 -20   XYZ
    dof rx rz
    limits (-45.0 90.0)
           (-20.0 70.0)
  end
  begin
     id 10 
     name rtoes
     direction -1.53538e-011 -4.21989e-011 1   
     length 1.09845   
     axis -90 -7.62852e-016 -20   XYZ
    dof rx
    limits (-90.0 20.0)
  end
  begin
     id 11 
     name lowerback
     direction -0.00762546 0.998978 -0.0445553   
     length 1.98161   
     axis 0 0 0   XYZ
    dof rx ry rz
    limits (-20.0 45.0)
           (-30.0 30.0)
           (-30.0 30.0)
  end
  begin
     id 12 
     name upperback
     direction 0.0422361 0.998867 -0.0219156   
     length 1.97558   
     axis 0 0 0   XYZ
    dof rx ry rz
    limits (-20.0 45.0)
           (-30.0 30.0)
           (-30.0 30.0)
  end
  begin
     id 13 
     name thorax
     direction 0.0442465 0.999021 7.47603e-005   
     length 1.97799   
     axis 0 0 0   XYZ
    dof rx ry rz
    limits (-20.0 45.0)
           (-30.0 30.0)
           (-30.0 30.0)
  end
  begin
     id 14 
     name lowerneck
     direction 0.00312169 0.984641 0.174564   
     length 1.78995   
     axis 0 0 0   XYZ
    dof rx ry rz
    limits (-20.0 45.0)
           (-30.0 30.0)
           (-30.0 30.0)
  end
  begin
     id 15 
     name upperneck
     direction -0.0383028 0.985255 -0.166749   
     length 1.83053   
     axis 0 0 0   XYZ
    dof rx ry rz
    limits (-20.0 45.0)
           (-30.0 30.0)
           (-30.0 30.0)
  end
  begin
     id 16
     name head
     direction -0.0129546 0.997059 -0.0755386  
     length 1.84088  
     axis 0 0 0   XYZ
    dof rx ry rz
    limits (-20.0 45.0)
           (-30.0 30.0)
           (-30.0 30.0)
  end
  begin
     id 17 
     name lclavicle
     direction 0.912857 0.370519 -0.171488  
     length 3.51279  
     axis 0 0 0   XYZ
    dof ry rz
    limits (-20.0 10.0)
           (0.0 20.0)
  end
  begin
     id 18 
     name lhumerus
     direction 1 -4.48962e-011 3.64361e-027   
     length 4.95663   
     axis 180 -30 -90   XYZ
    dof rx ry rz
    limits (-60.0 90.0)
           (-90.0 90.0)
           (-90.0 90.0)
  end
  begin
     id 19
     name lradius
     direction 1 -4.48974e-011 5.97202e-027   
     length 3.38177   
     axis 180 -30 -90   XYZ
    dof rx
    limits (-10.0 170.0)
  end
  begin
     id 20
     name lwrist
     direction 1 -4.4896e-011 9.83288e-027   
     length 1.69088   
     axis -9.31221e-015 90 90   XYZ
    dof ry
    limits (-180.0 0.0)
 end
  begin
     id 21 
     name lhand
     direction 1 -4.4902e-011 1.96551e-026   
     length 0.662909   
     axis -1.25475e-014 90 90   XYZ
    dof rx rz
    limits (-90.0 90.0)
           (-45.0 45.0)
  end
  begin
     id 22 
     name lfingers
     direction 1 -4.48971e-011 3.93277e-026   
     length 0.534454   
     axis -2.50945e-014 90 90   XYZ
    dof rx
    limits (0.0 90.0)
  end
  begin
     id 23
     name lthumb
     direction 0.707107 -6.34933e-011 0.707107   
     length 0.767373   
     axis -90 45 -4.80359e-014   XYZ
    dof rx rz
    limits (-45.0 45.0)
           (-45.0 45.0)
  end
  begin
     id 24 
     name rclavicle
     direction -0.900919 0.395364 -0.178976   
     length 3.40627  
     axis 0 0 0   XYZ 
    dof ry rz
    limits (-10.0 20.0)
           (-20.0 0.0)
  end
  begin
     id 25 
     name rhumerus
     direction -1 -4.48969e-011 1.03875e-027  
     length 5.08365   
     axis 180 30 90   XYZ
    dof rx ry rz
    limits (-90.0 60.0)
           (-90.0 90.0)
           (-90.0 90.0)
  end
  begin
     id 26 
     name rradius
     direction -1 -4.48951e-011 5.02733e-027   
     length 3.35984   
     axis 180 30 90   XYZ
    dof rx
    limits (-10.0 170.0)
  end
  begin
     id 27 
     name rwrist
     direction -1 -4.49011e-011 9.82828e-027   
     length 1.67992   
     axis -9.31221e-015 -90 -90   XYZ
    dof ry
    limits (-180.0 0.0)
  end
  begin
     id 28
     name rhand
     direction -1 -4.48894e-011 1.96774e-026   
     length 0.820764   
     axis -1.25475e-014 -90 -90   XYZ
    dof rx rz
    limits (-90.0 90.0)
           (-45.0 45.0)
  end
  begin
     id 29
     name rfingers
     direction -1 -4.49095e-011 3.92833e-026   
     length 0.661721   
     axis -2.50945e-014 -90 -90   XYZ
    dof rx
    limits (0.0 90.0)
  end
  begin
     id 30
     name rthumb
     direction -0.707107 -6.34881e-011 0.707107   
     length 0.950103   
     axis -90 -45 4.80359e-014   XYZ
    dof rx rz
    limits (-45.0 45.0)
           (-45.0 45.0)
  end
:hierarchy
  begin
    root lhipjoint rhipjoint lowerback
    lhipjoint lfemur
    lfemur ltibia
    ltibia lfoot
    lfoot ltoes
    rhipjoint rfemur
    rfemur rtibia
    rtibia rfoot
    rfoot rtoes
    lowerback upperback
    upperback thorax
    thorax lowerneck lclavicle rclavicle
    lowerneck upperneck
    upperneck head
    lclavicle lhumerus
    lhumerus lradius
    lradius lwrist
    lwrist lhand lthumb
    lhand lfingers
    rclavicle rhumerus
    rhumerus rradius
    rradius rwrist
    rwrist rhand rthumb
    rhand rfingers
  end

#!OML:ASF I:\golf\golf\golf 2\Subject 1\2002-09-07\Subject1.ASF
:FULLY-SPECIFIED
:DEGREES
38
root -11.9842 18.0887 6.45735 -73.1586 85.1398 -89.1022
lowerback 3.60308 1.31736 -1.6121
upperback 3.76056 1.8033 4.2771
thorax 1.66892 0.865949 5.29302
lowerneck -11.8328 -1.68549 2.0198
upperneck 42.4186 0.775029 -3.23133
head 17.6766 0.919669 -1.50053
rclavicle 1.27222e-014 3.97569e-014
rhumerus -10.9714 10.5872 -100.656
rradius 32.9196
rwrist -49.02
rhand -31.1333 -15.7036
rfingers 7.12502
rthumb -4.41185 -45.6376
lclavicle 1.27222e-014 3.97569e-014
lhumerus -13.6766 -48.7515 108.861
lradius 37.7603
lwrist 53.7714
lhand -6.36632 63.1111
lfingers 7.12502
lthumb -160.52 87.8447
rfemur -26.9882 1.13337 15.5093
rtibia 18.3964
rfoot -2.77555 -7.70375
rtoes 4.08964
lfemur -27.3518 2.57477 -7.67585
ltibia 20.766
lfoot -6.60606 -0.900769
ltoes -16.594
39
root -11.9839 18.092 6.45603 -72.7874 85.1572 -88.7231
lowerback 3.60265 1.35835 -1.57876
upperback 3.76493 1.85801 4.23276
thorax 1.67012 0.89419 5.226
lowerneck -11.786 -1.72679 2.10005
upperneck 42.3887 0.700179 -3.26556
head 17.6425 0.898091 -1.54313
rclavicle -1.63003e-014 -4.29375e-014
rhumerus -10.8884 10.1762 -100.677
rradius 32.7558
rwrist -48.5346
rhand -30.902 -15.7164
rfingers 7.12502
rthumb -4.18849 -45.655
lclavicle -1.63003e-014 -4.29375e-014
lhumerus -13.7391 -48.8023 108.917
lradius 37.8417
lwrist 53.9028
lhand -6.57113 63.2146
lfingers 7.12502
lthumb -160.717 87.7215
rfemur -26.9727 1.15238 15.477
rtibia 18.3792
rfoot -2.79782 -7.68688
rtoes 3.99607
lfemur -27.2421 2.18529 -7.48571
ltibia 20.7631
lfoot -6.55821 -0.755308
ltoes -10.5711
40
root -11.984 18.0937 6.45413 -72.7875 85.1459 -88.738
lowerback 3.57939 1.37819 -1.51816
upperback 3.76682 1.88562 4.22289
thorax 1.6842 0.909202 5.18105
lowerneck -11.7436 -1.76597 2.03513
upperneck 42.3674 0.635354 -3.2072
head 17.6154 0.869508 -1.51468
rclavicle 2.24627e-014 2.94201e-014
rhumerus -10.8144 9.8996 -100.687
rradius 32.6504
rwrist -48.2748
rhand -30.9972 -15.7478
rfingers 7.12502
rthumb -4.28039 -45.6845
lclavicle 2.24627e-014 2.94201e-014
lhumerus -13.7937 -48.9311 108.958
lradius 38.0776
lwrist 54.3258
lhand -7.13127 63.3461
lfingers 7.12502
lthumb -161.255 87.537
rfemur -26.9732 1.11139 15.4969
rtibia 18.3424
rfoot -2.82016 -7.65841
rtoes 4.1769
lfemur -27.2393 2.13985 -7.4479
ltibia 20.75
lfoot -6.64639 -0.784452
ltoes -10.8643
41
root -11.9841 18.094 6.45237 -72.6483 85.1674 -88.6112
lowerback 3.56817 1.38511 -1.53112
upperback 3.77813 1.89471 4.23741
thorax 1.70052 0.913075 5.20403
lowerneck -11.762 -1.76798 1.97719
upperneck 42.3809 0.653479 -3.20883
head 17.6294 0.867932 -1.50192
rclavicle -8.54774e-015 -1.59028e-015
rhumerus -10.7272 9.75325 -100.643
rradius 32.5304
rwrist -48.0762
rhand -30.9605 -15.7508
rfingers 7.12502
rthumb -4.24501 -45.6882
lclavicle -8.54774e-015 -1.59028e-015
lhumerus -13.7882 -49.0113 108.962
lradius 38.1571
lwrist 54.4597
lhand -7.21815 63.3256
lfingers 7.12502
lthumb -161.339 87.5495
rfemur -26.978 1.01848 15.4966
rtibia 18.3067
rfoot -2.75946 -7.5695
rtoes 3.9473
lfemur -27.242 2.08881 -7.44744
ltibia 20.7506
lfoot -6.71595 -0.798464
ltoes -11.4898
42
root -11.9836 18.0939 6.45133 -72.291 85.2095 -88.2559
lowerback 3.57142 1.40202 -1.58126
upperback 3.79574 1.91629 4.24595
thorax 1.71309 0.922381 5.24134
lowerneck -11.8102 -1.77643 2.01692
upperneck 42.4027 0.669659 -3.30283
head 17.6561 0.868922 -1.55057
rclavicle -2.92213e-014 -5.12864e-014
rhumerus -10.6694 9.66771 -100.595
rradius 32.4613
rwrist -47.9569
rhand -30.654 -15.669
rfingers 7.12502
rthumb -3.94901 -45.6122
lclavicle -2.92213e-014 -5.12864e-014
lhumerus -13.6789 -48.8481 108.914
lradius 37.9049
lwrist 53.7665
lhand -6.60318 63.4211
lfingers 7.12502
lthumb -160.748 87.5118
rfemur -26.9738 0.965856 15.4624
rtibia 18.2849
rfoot -2.70961 -7.5138
rtoes 3.45412
lfemur -27.2404 2.07047 -7.49672
ltibia 20.7651
lfoot -6.70875 -0.762013
ltoes -11.4051
43
root -11.9826 18.0943 6.45137 -72.3113 85.1664 -88.2663
lowerback 3.58343 1.40982 -1.54017
upperback 3.80777 1.92861 4.28259
thorax 1.71768 0.929474 5.25603
lowerneck -11.8095 -1.79548 2.02653
upperneck 42.4007 0.675279 -3.39039
head 17.6553 0.861618 -1.59177
rclavicle 2.74323e-014 2.90226e-014
rhumerus -10.6604 9.63005 -100.578
rradius 32.4481
rwrist -47.9399
rhand -30.4161 -15.4949
rfingers 7.12502
rthumb -3.71927 -45.4422
lclavicle 2.74323e-014 2.90226e-014
lhumerus -13.586 -48.6391 108.887
lradius 37.7645
lwrist 53.2595
lhand -6.7685 63.6773
lfingers 7.12502
lthumb -160.907 87.2399
rfemur -26.9493 0.996997 15.5026
rtibia 18.2724
rfoot -2.73721 -7.53251
rtoes 3.63355
lfemur -27.2333 2.07799 -7.44818
ltibia 20.778
lfoot -6.69662 -0.761224
ltoes -10.9605
44
root -11.9816 18.0955 6.45268 -72.375 85.0968 -88.3355
lowerback 3.56783 1.40477 -1.48944
upperback 3.81306 1.92384 4.32737
thorax 1.73251 0.927989 5.2749
lowerneck -11.7698 -1.79587 2.00358
upperneck 42.3715 0.703685 -3.44563
head 17.6293 0.861858 -1.60733
rclavicle -2.88238e-014 -8.11041e-014
rhumerus -10.6815 9.69455 -100.595
rradius 32.4555
rwrist -48.0393
rhand -30.2799 -15.2756
rfingers 7.12502
rthumb -3.58775 -45.2251
lclavicle -2.88238e-014 -8.11041e-014
lhumerus -13.6367 -48.7411 108.913
lradius 37.9794
lwrist 53.7937
lhand -8.17043 63.8922
lfingers 7.12502
lthumb -162.255 86.8975
rfemur -26.9429 1.0914 15.5563
rtibia 18.2649
rfoot -2.73571 -7.59175
rtoes 3.74119
lfemur -27.2454 2.14634 -7.39156
ltibia 20.7842
lfoot -6.59486 -0.764833
ltoes -9.94154
45
root -11.9808 18.0959 6.45262 -72.1952 85.1346 -88.1837
lowerback 3.53355 1.39831 -1.55269
upperback 3.81698 1.91352 4.34204
thorax 1.75464 0.920711 5.32778
lowerneck -11.761 -1.77394 1.96208
upperneck 42.3528 0.740981 -3.42957
head 17.618 0.87168 -1.58547
rclavicle -1.03368e-014 -4.45278e-014
rhumerus -10.6958 9.79422 -100.606
rradius 32.4994
rwrist -48.1042
rhand -30.2848 -15.291
rfingers 7.12502
rthumb -3.59246 -45.2405
lclavicle -1.03368e-014 -4.45278e-014
lhumerus -13.6693 -48.8125 108.922
lradius 38.0701
lwrist 54.1489
lhand -8.76671 64.0245
lfingers 7.12502
lthumb -162.829 86.7142
rfemur -26.9686 1.14352 15.4943
rtibia 18.262
rfoot -2.72176 -7.65423
rtoes 3.50121
lfemur -27.2784 2.21103 -7.4711
ltibia 20.7884
lfoot -6.52613 -0.75399
ltoes -9.65836
46
root -11.979 18.0952 6.45185 -71.911 85.1845 -87.9139
lowerback 3.51124 1.39846 -1.59756
upperback 3.82427 1.91221 4.33391
thorax 1.77381 0.918477 5.3457
lowerneck -11.7356 -1.74309 1.94349
upperneck 42.3232 0.776969 -3.39571
head 17.5955 0.886906 -1.55947
rclavicle -2.20651e-014 -5.08889e-014
rhumerus -10.6619 9.74287 -100.627
rradius 32.4591
rwrist -47.9011
rhand -30.1866 -15.4243
rfingers 7.12502
rthumb -3.4977 -45.3753
lclavicle -2.20651e-014 -5.08889e-014
lhumerus -13.7278 -48.8635 108.935
lradius 38.0192
lwrist 54.4293
lhand -9.10061 64.0218
lfingers 7.12502
lthumb -163.15 86.6892
rfemur -26.9999 1.14291 15.431
rtibia 18.2967
rfoot -2.76189 -7.66929
rtoes 3.22253
lfemur -27.2902 2.2341 -7.54264
ltibia 20.7967
lfoot -6.57182 -0.739878
ltoes -10.1011
47
root -11.9775 18.0954 6.45313 -71.6715 85.1388 -87.6973
lowerback 3.47879 1.4289 -1.55928
upperback 3.82094 1.95354 4.34071
thorax 1.78508 0.939896 5.33081
lowerneck -11.6866 -1.75273 1.98725
upperneck 42.2934 0.755169 -3.41219
head 17.5637 0.883239 -1.57778
rclavicle -2.5842e-015 -2.14687e-014
rhumerus -10.6024 9.66422 -100.664
rradius 32.3919
rwrist -47.932
rhand -30.0533 -15.3437
rfingers 7.12502
rthumb -3.36894 -45.2969
lclavicle -2.5842e-015 -2.14687e-014
lhumerus -13.858 -49.0785 108.996
lradius 37.9637
lwrist 54.7624
lhand -9.1757 63.7915
lfingers 7.12502
lthumb -163.223 86.9134
rfemur -27.0713 1.19137 15.4731
rtibia 18.3912
rfoot -2.80161 -7.69245
rtoes 2.9924
lfemur -27.2957 2.27454 -7.49736
ltibia 20.7908
lfoot -6.55709 -0.738951
ltoes -10.19
48
root -11.977 18.0951 6.45331 -71.8731 85.1086 -87.9353
lowerback 3.44219 1.47049 -1.51052
upperback 3.82002 2.01012 4.35327
thorax 1.79979 0.969181 5.31585
lowerneck -11.6931 -1.79384 2.00794
upperneck 42.2902 0.692235 -3.42532
head 17.5602 0.860231 -1.59822
rclavicle -7.95139e-015 -5.56597e-014
rhumerus -10.5245 9.59699 -100.649
rradius 32.3883
rwrist -48.1353
rhand -30.0964 -15.2739
rfingers 7.12502
rthumb -3.41053 -45.2264
lclavicle -7.95139e-015 -5.56597e-014
lhumerus -13.833 -49.14 108.997
lradius 37.8464
lwrist 54.4723
lhand -7.6127 63.2071
lfingers 7.12502
lthumb -161.719 87.632
rfemur -27.1561 1.23381 15.4944
rtibia 18.4958
rfoot -2.85481 -7.7381
rtoes 3.26089
lfemur -27.3214 2.46169 -7.56204
ltibia 20.7584
lfoot -6.56435 -0.79617
ltoes -11.9169
49
root -11.976 18.0941 6.45143 -72.1266 85.2267 -88.1732
lowerback 3.44375 1.48041 -1.60751
upperback 3.84574 2.02134 4.35772
thorax 1.82141 0.971896 5.37619
lowerneck -11.7063 -1.78926 1.95739
upperneck 42.2581 0.701688 -3.4054
head 17.5456 0.857725 -1.57761
rclavicle 2.50469e-014 -1.59028e-015
rhumerus -10.47 9.52457 -100.582
rradius 32.4095
rwrist -48.0192
rhand -30.0531 -15.5381
rfingers 7.12502
rthumb -3.36878 -45.4912
lclavicle 2.50469e-014 -1.59028e-015
lhumerus -13.7026 -49.0688 108.957
lradius 37.7885
lwrist 54.3386
lhand -7.26734 62.8972
lfingers 7.12502
lthumb -161.386 87.9734
rfemur -27.1719 1.12106 15.3824
rtibia 18.5794
rfoot -2.95798 -7.69606
rtoes 3.6128
lfemur -27.3369 2.75358 -7.87487
ltibia 20.7137
lfoot -6.59849 -0.917969
ltoes -14.3708
50
root -11.9745 18.0948 6.45165 -71.7746 85.3807 -87.782
lowerback 3.47477 1.49563 -1.7879
upperback 3.86191 2.0378 4.35589
thorax 1.81378 0.975754 5.47623
lowerneck -11.6874 -1.76811 1.88017
upperneck 42.2416 0.729701 -3.33736
head 17.5323 0.866078 -1.52656
rclavicle -3.18055e-015 -1.35174e-014
rhumerus -10.4847 9.51409 -100.556
rradius 32.4655
rwrist -47.9523
rhand -29.9379 -15.9084
rfingers 7.12502
rthumb -3.2575 -45.8633
lclavicle -3.18055e-015 -1.35174e-014
lhumerus -13.6692 -49.0603 108.967
lradius 37.7837
lwrist 54.4834
lhand -6.72722 63.0429
lfingers 7.12502
lthumb -160.867 87.8783
rfemur -27.1726 0.974496 15.2486
rtibia 18.6636
rfoot -3.07356 -7.62998
rtoes 3.52727
lfemur -27.2895 2.71919 -8.02965
ltibia 20.655
lfoot -6.6229 -1.01764
ltoes -14.3206
51
root -11.9727 18.0956 6.45271 -71.4289 85.426 -87.41
lowerback 3.49225 1.52942 -1.84073
upperback 3.86938 2.08186 4.35505
thorax 1.80539 0.996724 5.50397
lowerneck -11.6772 -1.77713 1.82155
upperneck 42.2633 0.708943 -3.26179
head 17.5413 0.86029 -1.48441
rclavicle -1.43125e-014 -4.21423e-014
rhumerus -10.496 9.48446 -100.558
rradius 32.4739
rwrist -47.9035
rhand -29.717 -16.096
rfingers 7.12502
rthumb -3.04414 -46.0541
lclavicle -1.43125e-014 -4.21423e-014
lhumerus -13.6748 -49.0419 108.982
lradius 37.7201
lwrist 54.3081
lhand -8.98501 62.9869
lfingers 7.12502
lthumb -163.039 87.7336
rfemur -27.1865 0.904808 15.2223
rtibia 18.7466
rfoot -3.09188 -7.54242
rtoes 2.95825
lfemur -27.163 2.45381 -7.92462
ltibia 20.5765
lfoot -6.65701 -1.03874
ltoes -12.6156
52
root -11.9718 18.0954 6.45147 -71.9679 85.4341 -87.9429
lowerback 3.49751 1.53196 -1.82101
upperback 3.87646 2.08613 4.36908
thorax 1.80948 0.999291 5.5074
lowerneck -11.6696 -1.77783 1.8135
upperneck 42.2672 0.701191 -3.23401
head 17.5411 0.860393 -1.47125
rclavicle 1.86858e-014 3.65764e-014
rhumerus -10.4727 9.41548 -100.563
rradius 32.3997
rwrist -47.6826
rhand -29.3274 -16.0139
rfingers 7.12502
rthumb -2.66792 -45.977
lclavicle 1.86858e-014 3.65764e-014
lhumerus -13.6379 -48.9222 108.961
lradius 37.6923
lwrist 53.9898
lhand -6.48196 62.3414
lfingers 7.12502
lthumb -160.631 88.6033
rfemur -27.1999 0.807622 15.2417
rtibia 18.7972
rfoot -3.05213 -7.43353
rtoes 2.8455
lfemur -27.0966 2.34848 -7.88282
ltibia 20.5061
lfoot -6.63034 -1.05696
ltoes -11.8979
